<svg width="420" height="124" viewBox="0 0 420 124" fill="none" xmlns="http://www.w3.org/2000/svg">
<path d="M9.9375 11.9792C9.9375 13.3542 9.4375 14.4375 8.4375 15.2292C7.44792 16.0208 6.07292 16.4167 4.3125 16.4167C2.6875 16.4167 1.25 16.1146 0 15.5V12.5C1.02604 12.9583 1.89583 13.2865 2.60417 13.4792C3.32292 13.6615 3.97917 13.75 4.5625 13.75C5.27083 13.75 5.8125 13.6198 6.1875 13.3542C6.57292 13.0781 6.77083 12.6667 6.77083 12.125C6.77083 11.8333 6.6875 11.5729 6.52083 11.3333C6.35417 11.099 6.10417 10.875 5.77083 10.6667C5.44792 10.4479 4.79687 10.099 3.8125 9.625C2.88021 9.19792 2.17708 8.78125 1.70833 8.375C1.25 7.97396 0.880208 7.51042 0.604167 6.97917C0.322916 6.4375 0.1875 5.80729 0.1875 5.08333C0.1875 3.73958 0.635417 2.68229 1.54167 1.91667C2.45833 1.14063 3.71875 0.75 5.33333 0.75C6.125 0.75 6.88021 0.848959 7.60417 1.04167C8.32292 1.22396 9.07292 1.48958 9.85417 1.83333L8.8125 4.33333C8.00521 4 7.33333 3.77083 6.79167 3.64583C6.26042 3.51042 5.73958 3.4375 5.22917 3.4375C4.61458 3.4375 4.14583 3.58333 3.8125 3.875C3.48958 4.15625 3.33333 4.52083 3.33333 4.97917C3.33333 5.27083 3.39583 5.52083 3.52083 5.72917C3.65625 5.9375 3.875 6.14583 4.16667 6.35417C4.45833 6.55208 5.13542 6.90625 6.20833 7.41667C7.63542 8.09896 8.61458 8.78125 9.14583 9.45833C9.67187 10.1406 9.9375 10.9792 9.9375 11.9792Z" fill="black"/>
<path d="M20.6846 16.2083L20.2679 14.7083H20.1012C19.7523 15.25 19.2679 15.6771 18.6429 15.9792C18.0179 16.2708 17.3096 16.4167 16.5179 16.4167C15.1429 16.4167 14.1064 16.0521 13.4137 15.3125C12.7158 14.5781 12.3721 13.5208 12.3721 12.1458V4.5625H15.5596V11.3542C15.5596 12.2031 15.7054 12.8333 15.9971 13.25C16.2992 13.6667 16.7783 13.875 17.4346 13.875C18.32 13.875 18.9606 13.5833 19.3512 13C19.7523 12.4063 19.9554 11.4167 19.9554 10.0417V4.5625H23.1221V16.2083H20.6846Z" fill="black"/>
<path d="M32.848 16.4166C31.4834 16.4166 30.4157 15.9166 29.6396 14.9166H29.473C29.5824 15.9062 29.6396 16.4687 29.6396 16.625V21.3333H26.4521V4.56248H29.0355L29.4938 6.06248H29.6396C30.374 4.91144 31.473 4.33331 32.9313 4.33331C34.3063 4.33331 35.3792 4.86977 36.1605 5.93748C36.9365 6.99477 37.3271 8.46873 37.3271 10.3541C37.3271 11.6041 37.1449 12.6875 36.7855 13.6041C36.4209 14.5208 35.9001 15.2239 35.223 15.7083C34.5563 16.1823 33.7646 16.4166 32.848 16.4166ZM31.9105 6.87498C31.1292 6.87498 30.5615 7.11977 30.2021 7.60415C29.8376 8.09373 29.6501 8.89061 29.6396 9.99998V10.3333C29.6396 11.5833 29.8167 12.4791 30.1813 13.0208C30.5563 13.5625 31.1449 13.8333 31.9521 13.8333C33.3792 13.8333 34.098 12.6614 34.098 10.3125C34.098 9.17706 33.9157 8.3229 33.5563 7.74998C33.2074 7.16665 32.6605 6.87498 31.9105 6.87498Z" fill="black"/>
<path d="M44.7819 6.60415C44.0996 6.60415 43.5632 6.8229 43.1777 7.24998C42.8027 7.66665 42.584 8.27081 42.5319 9.06248H46.9902C46.9746 8.27081 46.7663 7.66665 46.3652 7.24998C45.9746 6.8229 45.4486 6.60415 44.7819 6.60415ZM45.2194 16.4166C43.3444 16.4166 41.8757 15.9062 40.8236 14.875C39.7663 13.8333 39.2402 12.3646 39.2402 10.4583C39.2402 8.51561 39.7246 7.0104 40.6986 5.93748C41.6829 4.86977 43.0371 4.33331 44.7611 4.33331C46.3965 4.33331 47.6777 4.80727 48.5944 5.74998C49.5111 6.68227 49.9694 7.97394 49.9694 9.62498V11.1666H42.4694C42.4954 12.0729 42.7611 12.7812 43.2611 13.2916C43.7611 13.7916 44.459 14.0416 45.3652 14.0416C46.0736 14.0416 46.7402 13.9739 47.3652 13.8333C47.9902 13.6823 48.6413 13.4479 49.3236 13.125V15.5833C48.7663 15.8646 48.1673 16.0729 47.5319 16.2083C46.9069 16.3437 46.1361 16.4166 45.2194 16.4166Z" fill="black"/>
<path d="M59.0498 4.33331C59.4769 4.33331 59.8415 4.36977 60.1331 4.43748L59.8831 7.41665C59.6331 7.34894 59.3206 7.31248 58.9456 7.31248C57.93 7.31248 57.1383 7.57811 56.5706 8.10415C56.0133 8.61977 55.7373 9.34373 55.7373 10.2708V16.2083H52.5498V4.56248H54.9665L55.4248 6.52081H55.5915C55.9508 5.86977 56.4352 5.34373 57.0498 4.93748C57.6592 4.53644 58.3258 4.33331 59.0498 4.33331Z" fill="black"/>
<path d="M72.6724 16.2083H69.4849V9.39581C69.4849 8.56248 69.3442 7.93748 69.0682 7.52081C68.7869 7.09373 68.3442 6.87498 67.7349 6.87498C66.9276 6.87498 66.339 7.17706 65.964 7.77081C65.5994 8.36977 65.4224 9.35415 65.4224 10.7291V16.2083H62.2349V4.56248H64.6724L65.089 6.04165H65.2765C65.5786 5.51561 66.0265 5.09894 66.6099 4.79165C67.2036 4.48956 67.8859 4.33331 68.6515 4.33331C70.4015 4.33331 71.5786 4.90623 72.1932 6.04165H72.4849C72.7869 5.49998 73.2453 5.08331 73.8599 4.79165C74.4692 4.48956 75.1567 4.33331 75.9224 4.33331C77.2401 4.33331 78.2349 4.67706 78.9015 5.35415C79.5786 6.03644 79.9224 7.11977 79.9224 8.60415V16.2083H76.7349V9.39581C76.7349 8.56248 76.5942 7.93748 76.3182 7.52081C76.0369 7.09373 75.5942 6.87498 74.9849 6.87498C74.2036 6.87498 73.6203 7.15623 73.2349 7.70831C72.8599 8.26561 72.6724 9.14581 72.6724 10.3541V16.2083Z" fill="black"/>
<path d="M88.0109 6.60415C87.3286 6.60415 86.7922 6.8229 86.4067 7.24998C86.0317 7.66665 85.813 8.27081 85.7609 9.06248H90.2192C90.2036 8.27081 89.9953 7.66665 89.5942 7.24998C89.2036 6.8229 88.6776 6.60415 88.0109 6.60415ZM88.4484 16.4166C86.5734 16.4166 85.1047 15.9062 84.0526 14.875C82.9953 13.8333 82.4692 12.3646 82.4692 10.4583C82.4692 8.51561 82.9536 7.0104 83.9276 5.93748C84.9119 4.86977 86.2661 4.33331 87.9901 4.33331C89.6255 4.33331 90.9067 4.80727 91.8234 5.74998C92.7401 6.68227 93.1984 7.97394 93.1984 9.62498V11.1666H85.6984C85.7244 12.0729 85.9901 12.7812 86.4901 13.2916C86.9901 13.7916 87.688 14.0416 88.5942 14.0416C89.3026 14.0416 89.9692 13.9739 90.5942 13.8333C91.2192 13.6823 91.8703 13.4479 92.5526 13.125V15.5833C91.9953 15.8646 91.3963 16.0729 90.7609 16.2083C90.1359 16.3437 89.3651 16.4166 88.4484 16.4166Z" fill="black"/>
<path d="M102.279 4.33331C102.706 4.33331 103.07 4.36977 103.362 4.43748L103.112 7.41665C102.862 7.34894 102.55 7.31248 102.175 7.31248C101.159 7.31248 100.367 7.57811 99.7996 8.10415C99.2424 8.61977 98.9663 9.34373 98.9663 10.2708V16.2083H95.7788V4.56248H98.1955L98.6538 6.52081H98.8205C99.1799 5.86977 99.6642 5.34373 100.279 4.93748C100.888 4.53644 101.555 4.33331 102.279 4.33331Z" fill="black"/>
<path d="M110.193 16.4166C106.568 16.4166 104.756 14.4271 104.756 10.4375C104.756 8.46873 105.245 6.95831 106.235 5.91665C107.219 4.86456 108.636 4.33331 110.485 4.33331C111.829 4.33331 113.037 4.59894 114.11 5.12498L113.173 7.58331C112.673 7.39061 112.204 7.22915 111.777 7.10415C111.344 6.96873 110.912 6.89581 110.485 6.89581C108.829 6.89581 108.006 8.0729 108.006 10.4166C108.006 12.6979 108.829 13.8333 110.485 13.8333C111.094 13.8333 111.657 13.7604 112.173 13.6041C112.699 13.4375 113.219 13.1823 113.735 12.8333V15.5416C113.219 15.875 112.699 16.1041 112.173 16.2291C111.657 16.3541 110.995 16.4166 110.193 16.4166Z" fill="black"/>
<path d="M123.826 16.2083L123.222 14.625H123.138C122.597 15.2917 122.039 15.7604 121.472 16.0208C120.914 16.2813 120.18 16.4167 119.263 16.4167C118.149 16.4167 117.269 16.099 116.618 15.4583C115.977 14.8229 115.659 13.9115 115.659 12.7292C115.659 11.4948 116.086 10.5833 116.951 10C117.826 9.40625 119.128 9.07813 120.868 9.02083L122.888 8.95833V8.4375C122.888 7.26042 122.284 6.66667 121.076 6.66667C120.144 6.66667 119.055 6.95313 117.805 7.52083L116.743 5.375C118.086 4.66667 119.576 4.3125 121.201 4.3125C122.769 4.3125 123.972 4.65625 124.805 5.33333C125.638 6.01563 126.055 7.05208 126.055 8.4375V16.2083H123.826ZM122.888 10.8125L121.659 10.8542C120.743 10.8854 120.055 11.0521 119.597 11.3542C119.149 11.6615 118.93 12.125 118.93 12.75C118.93 13.6406 119.44 14.0833 120.472 14.0833C121.206 14.0833 121.789 13.875 122.222 13.4583C122.664 13.0313 122.888 12.4687 122.888 11.7708V10.8125Z" fill="black"/>
<path d="M133 16.4167C131.635 16.4167 130.562 15.8906 129.771 14.8333C128.989 13.7656 128.604 12.2865 128.604 10.3958C128.604 8.49479 129 7.01042 129.792 5.9375C130.594 4.86979 131.693 4.33333 133.083 4.33333C134.552 4.33333 135.672 4.90625 136.437 6.04167H136.542C136.385 5.18229 136.312 4.41146 136.312 3.72917V0H139.5V16.2083H137.062L136.437 14.6875H136.312C135.588 15.8438 134.484 16.4167 133 16.4167ZM134.125 13.875C134.927 13.875 135.521 13.6406 135.896 13.1667C136.281 12.6979 136.489 11.8958 136.521 10.7708V10.4167C136.521 9.16667 136.323 8.27083 135.937 7.72917C135.562 7.1875 134.937 6.91667 134.062 6.91667C133.354 6.91667 132.802 7.22396 132.417 7.83333C132.026 8.43229 131.833 9.30208 131.833 10.4375C131.833 11.5938 132.026 12.4531 132.417 13.0208C132.818 13.5938 133.385 13.875 134.125 13.875Z" fill="black"/>
<path d="M145.351 10.3541C145.351 11.5104 145.538 12.3854 145.913 12.9791C146.288 13.5625 146.903 13.8541 147.767 13.8541C148.611 13.8541 149.215 13.5625 149.58 12.9791C149.955 12.3958 150.142 11.5208 150.142 10.3541C150.142 9.20311 149.955 8.34373 149.58 7.77081C149.205 7.18748 148.59 6.89581 147.746 6.89581C146.897 6.89581 146.288 7.18748 145.913 7.77081C145.538 8.34373 145.351 9.20311 145.351 10.3541ZM153.392 10.3541C153.392 12.2604 152.892 13.7448 151.892 14.8125C150.892 15.8854 149.502 16.4166 147.726 16.4166C146.601 16.4166 145.606 16.1771 144.746 15.6875C143.897 15.1875 143.246 14.4791 142.788 13.5625C142.33 12.6458 142.101 11.5781 142.101 10.3541C142.101 8.45311 142.59 6.97394 143.58 5.91665C144.58 4.86456 145.981 4.33331 147.788 4.33331C148.897 4.33331 149.877 4.5781 150.726 5.06248C151.585 5.55206 152.246 6.24998 152.705 7.16665C153.163 8.0729 153.392 9.1354 153.392 10.3541Z" fill="black"/>
<path d="M19.917 82.0666H42.6253V95.4416H2.60449V24.2958H19.917V82.0666Z" fill="#7ED957" fill-opacity="0.4"/>
<path d="M40.4873 67.0666C40.4873 61.2645 41.5811 56.1655 43.779 51.7749C45.9717 47.3739 48.9561 43.9937 52.7373 41.6291C56.529 39.2697 60.7581 38.0874 65.4248 38.0874C69.4092 38.0874 72.904 38.8999 75.904 40.5249C78.9144 42.1395 81.2269 44.2645 82.8415 46.8999V38.8999H100.175V95.4416H82.8415V87.4416C81.1592 90.0666 78.8102 92.1916 75.7998 93.8166C72.7998 95.4416 69.305 96.2541 65.3206 96.2541C60.7217 96.2541 56.529 95.0614 52.7373 92.6707C48.9561 90.2697 45.9717 86.853 43.779 82.4207C41.5811 77.9937 40.4873 72.8739 40.4873 67.0666ZM82.8415 67.1707C82.8415 62.853 81.6383 59.4416 79.2373 56.9416C76.8467 54.4416 73.93 53.1916 70.4873 53.1916C67.0394 53.1916 64.1175 54.4312 61.7165 56.8999C59.3258 59.3582 58.1331 62.7489 58.1331 67.0666C58.1331 71.3895 59.3258 74.8166 61.7165 77.3582C64.1175 79.8895 67.0394 81.1499 70.4873 81.1499C73.93 81.1499 76.8467 79.8999 79.2373 77.3999C81.6383 74.8999 82.8415 71.4937 82.8415 67.1707Z" fill="#7ED957" fill-opacity="0.4"/>
<path d="M19.917 82.0666H42.6253V95.4416H2.60449V24.2958H19.917V82.0666Z" fill="#7ED957"/>
<path d="M40.4873 67.0666C40.4873 61.2645 41.5811 56.1655 43.779 51.7749C45.9717 47.3739 48.9561 43.9937 52.7373 41.6291C56.529 39.2697 60.7581 38.0874 65.4248 38.0874C69.4092 38.0874 72.904 38.8999 75.904 40.5249C78.9144 42.1395 81.2269 44.2645 82.8415 46.8999V38.8999H100.175V95.4416H82.8415V87.4416C81.1592 90.0666 78.8102 92.1916 75.7998 93.8166C72.7998 95.4416 69.305 96.2541 65.3206 96.2541C60.7217 96.2541 56.529 95.0614 52.7373 92.6707C48.9561 90.2697 45.9717 86.853 43.779 82.4207C41.5811 77.9937 40.4873 72.8739 40.4873 67.0666ZM82.8415 67.1707C82.8415 62.853 81.6383 59.4416 79.2373 56.9416C76.8467 54.4416 73.93 53.1916 70.4873 53.1916C67.0394 53.1916 64.1175 54.4312 61.7165 56.8999C59.3258 59.3582 58.1331 62.7489 58.1331 67.0666C58.1331 71.3895 59.3258 74.8166 61.7165 77.3582C64.1175 79.8895 67.0394 81.1499 70.4873 81.1499C73.93 81.1499 76.8467 79.8999 79.2373 77.3999C81.6383 74.8999 82.8415 71.4937 82.8415 67.1707Z" fill="#7ED957"/>
<path d="M181.042 48.3166C183.068 45.2072 185.604 42.7645 188.646 40.9833C191.688 39.1916 195.068 38.2958 198.792 38.2958V56.6291H194.021C189.698 56.6291 186.459 57.5614 184.292 59.4208C182.125 61.2854 181.042 64.5406 181.042 69.1916V95.4416H163.729V38.8999H181.042V48.3166Z" fill="#7ED957" fill-opacity="0.4"/>
<path d="M208.814 33.0249C205.773 33.0249 203.283 32.1291 201.356 30.3374C199.439 28.5457 198.481 26.3322 198.481 23.6916C198.481 20.9989 199.439 18.7541 201.356 16.9624C203.283 15.1707 205.773 14.2749 208.814 14.2749C211.783 14.2749 214.231 15.1707 216.148 16.9624C218.075 18.7541 219.043 20.9989 219.043 23.6916C219.043 26.3322 218.075 28.5457 216.148 30.3374C214.231 32.1291 211.783 33.0249 208.814 33.0249ZM217.418 38.8999V95.4416H200.106V38.8999H217.418Z" fill="#7ED957" fill-opacity="0.4"/>
<path d="M276.297 66.2541C276.297 67.8791 276.193 69.5666 275.985 71.3166H236.777C237.053 74.8322 238.183 77.5197 240.172 79.3791C242.172 81.2437 244.62 82.1707 247.527 82.1707C251.844 82.1707 254.849 80.3478 256.547 76.6916H274.985C274.037 80.4155 272.329 83.7645 269.86 86.7332C267.402 89.7072 264.308 92.0405 260.589 93.7332C256.881 95.4155 252.724 96.2541 248.131 96.2541C242.589 96.2541 237.652 95.077 233.318 92.7124C228.995 90.3374 225.62 86.9572 223.193 82.5666C220.761 78.1812 219.547 73.0457 219.547 67.1707C219.547 61.2957 220.745 56.1655 223.152 51.7749C225.553 47.3739 228.912 43.9937 233.235 41.6291C237.553 39.2697 242.516 38.0874 248.131 38.0874C253.599 38.0874 258.464 39.2437 262.714 41.5457C266.974 43.8374 270.303 47.1187 272.693 51.3791C275.094 55.6291 276.297 60.5874 276.297 66.2541ZM258.568 61.6916C258.568 58.7228 257.553 56.3582 255.527 54.6082C253.495 52.8478 250.964 51.9624 247.922 51.9624C245.016 51.9624 242.568 52.8114 240.568 54.5041C238.579 56.202 237.349 58.5978 236.881 61.6916H258.568Z" fill="#7ED957" fill-opacity="0.4"/>
<path d="M299.911 38.0874C303.895 38.0874 307.39 38.8999 310.39 40.5249C313.4 42.1395 315.713 44.2645 317.327 46.8999V38.8999H334.661V95.3374C334.661 100.546 333.624 105.259 331.556 109.483C329.499 113.702 326.359 117.067 322.14 119.567C317.916 122.067 312.666 123.317 306.39 123.317C298.015 123.317 291.223 121.337 286.015 117.379C280.817 113.431 277.848 108.077 277.098 101.317H294.223C294.765 103.483 296.046 105.192 298.077 106.442C300.103 107.692 302.603 108.317 305.577 108.317C309.161 108.317 312.015 107.28 314.14 105.212C316.265 103.155 317.327 99.8634 317.327 95.3374V87.3374C315.645 89.978 313.317 92.1239 310.348 93.7749C307.374 95.4312 303.895 96.2541 299.911 96.2541C295.244 96.2541 291.015 95.0614 287.223 92.6707C283.442 90.2697 280.458 86.853 278.265 82.4207C276.067 77.9937 274.973 72.8739 274.973 67.0666C274.973 61.2645 276.067 56.1655 278.265 51.7749C280.458 47.3739 283.442 43.9937 287.223 41.6291C291.015 39.2697 295.244 38.0874 299.911 38.0874ZM317.327 67.1707C317.327 62.853 316.124 59.4416 313.723 56.9416C311.333 54.4416 308.416 53.1916 304.973 53.1916C301.525 53.1916 298.603 54.4312 296.202 56.8999C293.812 59.3582 292.619 62.7489 292.619 67.0666C292.619 71.3895 293.812 74.8166 296.202 77.3582C298.603 79.8895 301.525 81.1499 304.973 81.1499C308.416 81.1499 311.333 79.8999 313.723 77.3999C316.124 74.8999 317.327 71.4937 317.327 67.1707Z" fill="#7ED957" fill-opacity="0.4"/>
<path d="M365.971 96.2541C360.429 96.2541 355.439 95.077 351.012 92.7124C346.596 90.3374 343.117 86.9572 340.575 82.5666C338.044 78.1812 336.783 73.0457 336.783 67.1707C336.783 61.3687 338.064 56.2489 340.637 51.8166C343.205 47.3895 346.721 43.9937 351.179 41.6291C355.637 39.2697 360.637 38.0874 366.179 38.0874C371.721 38.0874 376.721 39.2697 381.179 41.6291C385.637 43.9937 389.143 47.3895 391.7 51.8166C394.268 56.2489 395.554 61.3687 395.554 67.1707C395.554 72.978 394.252 78.0978 391.658 82.5249C389.059 86.9416 385.512 90.3374 381.012 92.7124C376.523 95.077 371.512 96.2541 365.971 96.2541ZM365.971 81.2541C369.273 81.2541 372.096 80.0405 374.429 77.6082C376.762 75.1812 377.929 71.702 377.929 67.1707C377.929 62.6447 376.794 59.1655 374.533 56.7332C372.268 54.3062 369.481 53.0874 366.179 53.0874C362.804 53.0874 359.997 54.2905 357.762 56.6916C355.538 59.0822 354.429 62.577 354.429 67.1707C354.429 71.702 355.523 75.1812 357.721 77.6082C359.913 80.0405 362.663 81.2541 365.971 81.2541Z" fill="#7ED957" fill-opacity="0.4"/>
<path d="M181.042 48.3166C183.068 45.2072 185.604 42.7645 188.646 40.9833C191.688 39.1916 195.068 38.2958 198.792 38.2958V56.6291H194.021C189.698 56.6291 186.459 57.5614 184.292 59.4208C182.125 61.2854 181.042 64.5406 181.042 69.1916V95.4416H163.729V38.8999H181.042V48.3166Z" fill="#7ED957"/>
<path d="M208.814 33.0249C205.773 33.0249 203.283 32.1291 201.356 30.3374C199.439 28.5457 198.481 26.3322 198.481 23.6916C198.481 20.9989 199.439 18.7541 201.356 16.9624C203.283 15.1707 205.773 14.2749 208.814 14.2749C211.783 14.2749 214.231 15.1707 216.148 16.9624C218.075 18.7541 219.043 20.9989 219.043 23.6916C219.043 26.3322 218.075 28.5457 216.148 30.3374C214.231 32.1291 211.783 33.0249 208.814 33.0249ZM217.418 38.8999V95.4416H200.106V38.8999H217.418Z" fill="#7ED957"/>
<path d="M276.297 66.2541C276.297 67.8791 276.193 69.5666 275.985 71.3166H236.777C237.053 74.8322 238.183 77.5197 240.172 79.3791C242.172 81.2437 244.62 82.1707 247.527 82.1707C251.844 82.1707 254.849 80.3478 256.547 76.6916H274.985C274.037 80.4155 272.329 83.7645 269.86 86.7332C267.402 89.7072 264.308 92.0405 260.589 93.7332C256.881 95.4155 252.724 96.2541 248.131 96.2541C242.589 96.2541 237.652 95.077 233.318 92.7124C228.995 90.3374 225.62 86.9572 223.193 82.5666C220.761 78.1812 219.547 73.0457 219.547 67.1707C219.547 61.2957 220.745 56.1655 223.152 51.7749C225.553 47.3739 228.912 43.9937 233.235 41.6291C237.553 39.2697 242.516 38.0874 248.131 38.0874C253.599 38.0874 258.464 39.2437 262.714 41.5457C266.974 43.8374 270.303 47.1187 272.693 51.3791C275.094 55.6291 276.297 60.5874 276.297 66.2541ZM258.568 61.6916C258.568 58.7228 257.553 56.3582 255.527 54.6082C253.495 52.8478 250.964 51.9624 247.922 51.9624C245.016 51.9624 242.568 52.8114 240.568 54.5041C238.579 56.202 237.349 58.5978 236.881 61.6916H258.568Z" fill="#7ED957"/>
<path d="M299.911 38.0874C303.895 38.0874 307.39 38.8999 310.39 40.5249C313.4 42.1395 315.713 44.2645 317.327 46.8999V38.8999H334.661V95.3374C334.661 100.546 333.624 105.259 331.556 109.483C329.499 113.702 326.359 117.067 322.14 119.567C317.916 122.067 312.666 123.317 306.39 123.317C298.015 123.317 291.223 121.337 286.015 117.379C280.817 113.431 277.848 108.077 277.098 101.317H294.223C294.765 103.483 296.046 105.192 298.077 106.442C300.103 107.692 302.603 108.317 305.577 108.317C309.161 108.317 312.015 107.28 314.14 105.212C316.265 103.155 317.327 99.8634 317.327 95.3374V87.3374C315.645 89.978 313.317 92.1239 310.348 93.7749C307.374 95.4312 303.895 96.2541 299.911 96.2541C295.244 96.2541 291.015 95.0614 287.223 92.6707C283.442 90.2697 280.458 86.853 278.265 82.4207C276.067 77.9937 274.973 72.8739 274.973 67.0666C274.973 61.2645 276.067 56.1655 278.265 51.7749C280.458 47.3739 283.442 43.9937 287.223 41.6291C291.015 39.2697 295.244 38.0874 299.911 38.0874ZM317.327 67.1707C317.327 62.853 316.124 59.4416 313.723 56.9416C311.333 54.4416 308.416 53.1916 304.973 53.1916C301.525 53.1916 298.603 54.4312 296.202 56.8999C293.812 59.3582 292.619 62.7489 292.619 67.0666C292.619 71.3895 293.812 74.8166 296.202 77.3582C298.603 79.8895 301.525 81.1499 304.973 81.1499C308.416 81.1499 311.333 79.8999 313.723 77.3999C316.124 74.8999 317.327 71.4937 317.327 67.1707Z" fill="#7ED957"/>
<path d="M365.971 96.2541C360.429 96.2541 355.439 95.077 351.012 92.7124C346.596 90.3374 343.117 86.9572 340.575 82.5666C338.044 78.1812 336.783 73.0457 336.783 67.1707C336.783 61.3687 338.064 56.2489 340.637 51.8166C343.205 47.3895 346.721 43.9937 351.179 41.6291C355.637 39.2697 360.637 38.0874 366.179 38.0874C371.721 38.0874 376.721 39.2697 381.179 41.6291C385.637 43.9937 389.143 47.3895 391.7 51.8166C394.268 56.2489 395.554 61.3687 395.554 67.1707C395.554 72.978 394.252 78.0978 391.658 82.5249C389.059 86.9416 385.512 90.3374 381.012 92.7124C376.523 95.077 371.512 96.2541 365.971 96.2541ZM365.971 81.2541C369.273 81.2541 372.096 80.0405 374.429 77.6082C376.762 75.1812 377.929 71.702 377.929 67.1707C377.929 62.6447 376.794 59.1655 374.533 56.7332C372.268 54.3062 369.481 53.0874 366.179 53.0874C362.804 53.0874 359.997 54.2905 357.762 56.6916C355.538 59.0822 354.429 62.577 354.429 67.1707C354.429 71.702 355.523 75.1812 357.721 77.6082C359.913 80.0405 362.663 81.2541 365.971 81.2541Z" fill="#7ED957"/>
<mask id="mask0_449_276" style="mask-type:luminance" maskUnits="userSpaceOnUse" x="376" y="30" width="36" height="23">
<path d="M376.746 30.5916H411.792V52.6749H376.746V30.5916Z" fill="white"/>
</mask>
<g mask="url(#mask0_449_276)">
<mask id="mask1_449_276" style="mask-type:luminance" maskUnits="userSpaceOnUse" x="370" y="31" width="42" height="47">
<path d="M396.194 75.102C384.808 75.102 375.574 65.8677 375.574 54.4822C375.574 43.0916 384.808 33.8624 396.194 33.8624C402.105 33.8624 407.428 36.3416 411.188 40.326C407.037 35.1437 400.662 31.826 393.506 31.826C381.001 31.826 370.86 41.9666 370.86 54.4822C370.86 66.9927 381.001 77.1281 393.506 77.1281C400.657 77.1281 407.037 73.8104 411.188 68.6385C407.428 72.6177 402.105 75.102 396.194 75.102Z" fill="white"/>
</mask>
<g mask="url(#mask1_449_276)">
<path d="M411.188 31.826V52.6749H376.746V31.826H411.188Z" fill="#7ED957"/>
</g>
</g>
<mask id="mask2_449_276" style="mask-type:luminance" maskUnits="userSpaceOnUse" x="390" y="27" width="30" height="26">
<path d="M390.459 27.6749H419.745V52.6749H390.459V27.6749Z" fill="white"/>
</mask>
<g mask="url(#mask2_449_276)">
<mask id="mask3_449_276" style="mask-type:luminance" maskUnits="userSpaceOnUse" x="391" y="27" width="30" height="25">
<path d="M420.006 48.1072C419.995 43.8676 419.058 39.5655 416.865 35.9301C414.683 32.2999 411.162 29.3832 407.047 28.3572C404.318 27.6749 401.428 27.8364 398.672 28.4145C396.245 28.9301 393.902 29.7582 391.573 30.6176C396.042 29.8937 400.745 30.6593 404.735 32.8155C409.402 35.3312 413.021 39.7114 414.615 44.7687C411.323 42.0395 407.839 39.4614 403.933 37.7322C400.016 36.0082 395.615 35.1593 391.422 36.003C391.422 38.7739 392.803 41.4457 394.849 43.326C396.886 45.2062 399.532 46.3364 402.25 46.8989C404.974 47.4562 407.771 47.4614 410.542 47.3155C412.459 47.2062 414.443 47.0395 416.256 47.6801C418.068 48.3155 419.667 50.0447 419.454 51.951C419.678 50.727 420.011 49.352 420.006 48.1072Z" fill="white"/>
</mask>
<g mask="url(#mask3_449_276)">
<path d="M419.745 27.6749V51.951H391.422V27.6749H419.745Z" fill="#7ED957"/>
</g>
</g>
<mask id="mask4_449_276" style="mask-type:luminance" maskUnits="userSpaceOnUse" x="389" y="35" width="29" height="17">
<path d="M389.126 35.9249H417.126V51.9249H389.126V35.9249Z" fill="white"/>
</mask>
<g mask="url(#mask4_449_276)">
<mask id="mask5_449_276" style="mask-type:luminance" maskUnits="userSpaceOnUse" x="389" y="36" width="28" height="16">
<path d="M404.288 50.5135C399.689 50.3572 394.923 48.3937 392.022 44.8103C389.319 41.4718 389.647 37.0083 389.855 36.1281C388.73 38.3728 388.954 41.7114 390.173 44.1958C391.423 46.7322 393.834 48.6697 396.366 49.9249C400.334 51.8989 403.334 51.8728 408.012 51.3364C409.584 51.1593 411.491 50.6906 413.074 50.6853C414.064 50.6801 415.121 50.8103 416.038 51.1906C414.558 50.4406 412.808 50.1853 411.121 50.1853C408.84 50.1906 406.569 50.5916 404.288 50.5135Z" fill="white"/>
</mask>
<g mask="url(#mask5_449_276)">
<path d="M416.038 36.1281V51.8989H388.73V36.1281H416.038Z" fill="#7ED957"/>
</g>
</g>
<mask id="mask6_449_276" style="mask-type:luminance" maskUnits="userSpaceOnUse" x="97" y="22" width="49" height="29">
<path d="M97.7246 22.5916H145.126V50.5916H97.7246V22.5916Z" fill="white"/>
</mask>
<g mask="url(#mask6_449_276)">
<path fill-rule="evenodd" clip-rule="evenodd" d="M134.896 41.2114C131.73 34.5968 117.303 40.0916 114.282 36.3208C120.589 36.4927 130.339 34.5708 135.006 35.9562C143.167 38.3781 141.141 43.7687 138.954 50.2895C146.443 45.7739 146.683 31.7427 133.548 26.3312C123.188 22.076 120.178 29.1541 97.7402 23.576C98.61 45.7999 127.506 52.6906 134.896 41.2114Z" fill="#7ED957"/>
</g>
<mask id="mask7_449_276" style="mask-type:luminance" maskUnits="userSpaceOnUse" x="103" y="26" width="61" height="72">
<path d="M103.792 26.5916H163.792V97.076H103.792V26.5916Z" fill="white"/>
</mask>
<g mask="url(#mask7_449_276)">
<path fill-rule="evenodd" clip-rule="evenodd" d="M140.746 26.6645C143.006 29.4614 145.048 30.1437 146.829 35.9405C155.36 63.5968 104.855 53.7166 105.027 95.4926C111.256 87.5708 110.053 79.9145 130.678 69.7062C135.022 67.5551 142.162 63.076 146.157 72.5603C152.381 87.3728 133.813 86.0083 125.126 85.8103C126.058 80.5655 129.121 78.5343 130.954 75.2895C124.48 77.1176 111.47 90.1958 110.417 97.2426L140.22 97.2947C151.746 97.2947 159.48 92.7739 162.329 83.5395C163.97 78.227 163.126 73.576 160.657 69.2114C158.037 64.5708 156.121 64.2166 150.881 61.5083C151.652 59.7322 164.36 53.326 160.214 40.201C157.99 33.1489 150.303 26.4666 140.746 26.6645Z" fill="#006633"/>
</g>
</svg>
